<svg xmlns="http://www.w3.org/2000/svg" width="512" height="320" viewBox="0 0 512 320">
  <defs>
    <linearGradient id="bg" x1="0" y1="0" x2="1" y2="1">
      <stop offset="0" stop-color="#64748b"/>
      <stop offset="1" stop-color="#0ea5e9"/>
    </linearGradient>
  </defs>
  <rect width="512" height="320" rx="32" fill="url(#bg)"/>
  <g fill="#ffffff" opacity="0.95">
    <path d="M212 90h88c16 0 30 14 30 30v82c0 10-8 18-18 18h-112c-10 0-18-8-18-18v-82c0-16 14-30 30-30Zm-10 30v72h108v-72c0-6-4-10-10-10h-88c-6 0-10 4-10 10Z"/>
    <path d="M232 232h48v32c0 10-8 18-18 18h-12c-10 0-18-8-18-18v-32Zm-18-76c0-6 4-10 10-10s10 4 10 10-4 10-10 10-10-4-10-10Zm74 0c0-6 4-10 10-10s10 4 10 10-4 10-10 10-10-4-10-10Z"/>
    <path d="M352 150c0-14 10-26 24-28v-10c0-6 4-10 10-10s10 4 10 10v10c14 2 24 14 24 28 0 16-12 30-28 30h-12c-16 0-28-14-28-30Zm20 0c0 6 4 10 10 10h12c6 0 10-4 10-10 0-6-4-10-10-10h-12c-6 0-10 4-10 10Z"/>
  </g>
  <text x="28" y="54" font-family="system-ui, -apple-system, Segoe UI, Roboto, Arial" font-size="26" fill="#ffffff" opacity="0.95">Appliance</text>
</svg>

