<svg xmlns="http://www.w3.org/2000/svg" width="512" height="320" viewBox="0 0 512 320">
  <defs>
    <linearGradient id="bg" x1="0" y1="0" x2="1" y2="1">
      <stop offset="0" stop-color="#ec4899"/>
      <stop offset="1" stop-color="#8b5cf6"/>
    </linearGradient>
  </defs>
  <rect width="512" height="320" rx="32" fill="url(#bg)"/>
  <g fill="#ffffff" opacity="0.95">
    <path d="M256 90c44 0 80 36 80 80 0 36-24 66-58 76v18c0 10-8 18-18 18h-8c-10 0-18-8-18-18v-18c-34-10-58-40-58-76 0-44 36-80 80-80Zm0 30c-28 0-50 22-50 50 0 28 22 50 50 50 28 0 50-22 50-50 0-28-22-50-50-50Z"/>
    <path d="M210 154c8 0 14 6 14 14s-6 14-14 14-14-6-14-14 6-14 14-14Zm92 0c8 0 14 6 14 14s-6 14-14 14-14-6-14-14 6-14 14-14Z"/>
    <path d="M256 214c18 0 34-6 48-18 4-4 4-10 0-14s-10-4-14 0c-10 8-22 12-34 12s-24-4-34-12c-4-4-10-4-14 0s-4 10 0 14c14 12 30 18 48 18Z"/>
  </g>
  <text x="28" y="54" font-family="system-ui, -apple-system, Segoe UI, Roboto, Arial" font-size="26" fill="#ffffff" opacity="0.95">Beauty</text>
</svg>

