<svg xmlns="http://www.w3.org/2000/svg" width="512" height="320" viewBox="0 0 512 320">
  <defs>
    <linearGradient id="bg" x1="0" y1="0" x2="1" y2="1">
      <stop offset="0" stop-color="#22c55e"/>
      <stop offset="1" stop-color="#16a34a"/>
    </linearGradient>
  </defs>
  <rect width="512" height="320" rx="32" fill="url(#bg)"/>
  <g fill="#ffffff" opacity="0.95">
    <path d="M256 90c36 18 58 46 66 84-30 10-56 8-78-6 4 22-2 46-18 72-32-18-52-42-60-74 26-10 52-8 76 6-4-22 2-46 14-82Z"/>
    <path d="M252 172h8c14 46 16 86 8 122-2 8-10 12-18 10-8-2-12-10-10-18 6-28 4-62-8-114Z"/>
    <path d="M170 128c22 0 40 6 56 18-16 6-34 8-56 6-20-2-34-14-42-36 18-2 32 2 42 12Zm172 18c16-12 34-18 56-18 10-10 24-14 42-12-8 22-22 34-42 36-22 2-40 0-56-6Z"/>
  </g>
  <text x="28" y="54" font-family="system-ui, -apple-system, Segoe UI, Roboto, Arial" font-size="26" fill="#ffffff" opacity="0.95">Gardening</text>
</svg>

