<svg xmlns="http://www.w3.org/2000/svg" width="512" height="320" viewBox="0 0 512 320">
  <defs>
    <linearGradient id="bg" x1="0" y1="0" x2="1" y2="1">
      <stop offset="0" stop-color="#6366f1"/>
      <stop offset="1" stop-color="#0ea5e9"/>
    </linearGradient>
  </defs>
  <rect width="512" height="320" rx="32" fill="url(#bg)"/>
  <g fill="#ffffff" opacity="0.95">
    <path d="M321 96c-8 0-16 3-22 9l-18 18-22-22 18-18c2-2 2-6 0-8-10-10-26-10-36 0l-10 10c-16 16-16 42 0 58l8 8-78 78c-10 10-10 26 0 36l22 22c10 10 26 10 36 0l78-78 8 8c16 16 42 16 58 0l10-10c10-10 10-26 0-36-2-2-6-2-8 0l-18 18-22-22 18-18c6-6 9-14 9-22 0-18-14-32-32-32Zm-130 166-22-22 78-78 22 22-78 78Z"/>
  </g>
  <text x="28" y="54" font-family="system-ui, -apple-system, Segoe UI, Roboto, Arial" font-size="26" fill="#ffffff" opacity="0.95">Handyman</text>
</svg>

