<svg xmlns="http://www.w3.org/2000/svg" width="512" height="320" viewBox="0 0 512 320">
  <defs>
    <linearGradient id="bg" x1="0" y1="0" x2="1" y2="1">
      <stop offset="0" stop-color="#f59e0b"/>
      <stop offset="1" stop-color="#ef4444"/>
    </linearGradient>
  </defs>
  <rect width="512" height="320" rx="32" fill="url(#bg)"/>
  <g opacity="0.95" fill="#ffffff">
    <path d="M256 86c70 0 126 50 126 112s-56 112-126 112-126-50-126-112S186 86 256 86Zm0 26c-56 0-100 38-100 86s44 86 100 86 100-38 100-86-44-86-100-86Z"/>
    <path d="M196 210c0-34 28-62 62-62s62 28 62 62-28 62-62 62-62-28-62-62Zm62-40c-22 0-40 18-40 40s18 40 40 40 40-18 40-40-18-40-40-40Z"/>
    <path d="M256 132c22 0 40 14 40 32 0 6-4 10-10 10s-10-4-10-10c0-6-10-12-20-12s-20 6-20 12c0 6-4 10-10 10s-10-4-10-10c0-18 18-32 40-32Z"/>
    <path d="M338 124c-4 0-8-2-10-6-2-6 0-12 6-14 10-4 22-6 34-6 6 0 10 4 10 10s-4 10-10 10c-10 0-18 2-26 4-2 2-2 2-4 2Z"/>
  </g>
  <text x="28" y="54" font-family="system-ui, -apple-system, Segoe UI, Roboto, Arial" font-size="26" fill="#ffffff" opacity="0.95">Mooncakes</text>
</svg>

