<svg xmlns="http://www.w3.org/2000/svg" width="512" height="320" viewBox="0 0 512 320">
  <defs>
    <linearGradient id="bg" x1="0" y1="0" x2="1" y2="1">
      <stop offset="0" stop-color="#f97316"/>
      <stop offset="1" stop-color="#f59e0b"/>
    </linearGradient>
  </defs>
  <rect width="512" height="320" rx="32" fill="url(#bg)"/>
  <g fill="#ffffff" opacity="0.95">
    <path d="M132 132h180v86c0 10-8 18-18 18H150c-10 0-18-8-18-18v-86Zm190 20h30c6 0 12 3 16 8l22 30c2 3 4 8 4 12v16c0 10-8 18-18 18h-18c0-20-16-36-36-36s-36 16-36 36h-14c-10 0-18-8-18-18v-66h68Zm-168 66c-14 0-26 12-26 26s12 26 26 26 26-12 26-26-12-26-26-26Zm168 0c-14 0-26 12-26 26s12 26 26 26 26-12 26-26-12-26-26-26Z"/>
    <path d="M196 98h52c4 0 8 4 8 8v18h-68v-18c0-4 4-8 8-8Z"/>
  </g>
  <text x="28" y="54" font-family="system-ui, -apple-system, Segoe UI, Roboto, Arial" font-size="26" fill="#ffffff" opacity="0.95">Moving</text>
</svg>

