<svg xmlns="http://www.w3.org/2000/svg" width="512" height="320" viewBox="0 0 512 320">
  <defs>
    <linearGradient id="bg" x1="0" y1="0" x2="1" y2="1">
      <stop offset="0" stop-color="#14b8a6"/>
      <stop offset="1" stop-color="#22c55e"/>
    </linearGradient>
  </defs>
  <rect width="512" height="320" rx="32" fill="url(#bg)"/>
  <g fill="#ffffff" opacity="0.95">
    <path d="M188 152c-14 0-26-14-26-30 0-16 12-30 26-30s26 14 26 30c0 16-12 30-26 30Zm136 0c-14 0-26-14-26-30 0-16 12-30 26-30s26 14 26 30c0 16-12 30-26 30ZM150 190c-12 0-22-12-22-26 0-14 10-26 22-26s22 12 22 26c0 14-10 26-22 26Zm212 0c-12 0-22-12-22-26 0-14 10-26 22-26s22 12 22 26c0 14-10 26-22 26Z"/>
    <path d="M256 242c-30 0-56-14-56-40 0-30 22-58 56-58s56 28 56 58c0 26-26 40-56 40Zm-24-40c0 12 12 20 24 20s24-8 24-20c0-18-14-38-24-38s-24 20-24 38Z"/>
  </g>
  <text x="28" y="54" font-family="system-ui, -apple-system, Segoe UI, Roboto, Arial" font-size="26" fill="#ffffff" opacity="0.95">Pet Care</text>
</svg>

